<svg width="24" height="17" viewBox="0 0 24 17" fill="none" xmlns="http://www.w3.org/2000/svg">
<path fill-rule="evenodd" clip-rule="evenodd" d="M2.51691 17C2.43937 17 2.36184 16.975 2.30247 16.9254C2.18435 16.8259 2.18435 16.664 2.30247 16.5644L5.36526 13.9826C1.84082 12.0193 0.105248 9.10383 0.0314992 8.9775C0.0109036 8.94227 0 8.90346 0 8.86465V8.79674C0 8.75742 0.0109036 8.71912 0.0314992 8.68389C0.0708733 8.61649 4.06219 1.95584 11.9994 1.95584C14.1062 1.95584 16.1208 2.42168 17.9902 3.34022L21.8641 0.0746795C21.9822 -0.0248932 22.1743 -0.0248932 22.2924 0.0746795C22.4105 0.174252 22.4105 0.336122 22.2924 0.435695L2.73074 16.9249C2.67198 16.975 2.59445 17 2.51691 17ZM0.623322 8.82993C0.929809 9.31354 2.66641 11.9002 5.80324 13.6134L8.97678 10.9382C8.41121 10.3532 8.10257 9.62381 8.10257 8.86312C8.10257 7.05141 9.85078 5.57722 12 5.57722C12.9036 5.57722 13.7674 5.83776 14.4615 6.31483L17.5467 3.71409C15.8096 2.8859 13.9447 2.46596 11.9988 2.46596C4.8945 2.46596 1.09096 8.09207 0.623322 8.82993ZM14.0304 6.6782C13.4527 6.29592 12.7423 6.08785 11.9994 6.08785C10.1845 6.08785 8.70772 7.33276 8.70772 8.86312C8.70772 9.48786 8.95447 10.0879 9.40769 10.575L14.0304 6.6782ZM8.05775 15.1285C9.32014 15.5105 10.6467 15.704 11.9994 15.704C19.9372 15.704 23.9285 9.04491 23.9685 8.9775C23.9891 8.94227 24 8.90397 24 8.86465V8.79674C24 8.75793 23.9891 8.71912 23.9685 8.68389C23.917 8.59555 22.6782 6.50759 20.168 4.66422C20.0426 4.57179 19.8506 4.58252 19.7403 4.68873C19.6301 4.79545 19.6434 4.95681 19.7694 5.04923C21.9162 6.62554 23.1253 8.43419 23.3761 8.83044C22.9084 9.5683 19.1049 15.1934 11.9994 15.1934C10.7164 15.1934 9.45886 15.0096 8.2625 14.6475C8.105 14.5995 7.93115 14.669 7.87481 14.8017C7.81848 14.9345 7.90026 15.0811 8.05775 15.1285ZM11.9994 12.15C11.8625 12.15 11.7274 12.1439 11.5948 12.1327C11.4282 12.1179 11.307 11.9928 11.3246 11.8523C11.3422 11.7119 11.4869 11.6129 11.6571 11.6246C11.7704 11.6348 11.8843 11.6394 12 11.6394C13.8154 11.6394 15.2929 10.394 15.2929 8.86312C15.2929 8.72219 15.4286 8.60781 15.5958 8.60781C15.7629 8.60781 15.8986 8.72219 15.8986 8.86312C15.8974 10.6759 14.1486 12.15 11.9994 12.15Z" fill="#E0E0E0"/>
</svg>
